# 3ds Max Wavefront OBJ Exporter v0.97b - (c)2007 guruware
# File Created: 07.12.2014 22:07:55

mtllib arrivee_Zup_01.mtl

#
# object montantG
#

v  75.0000 460.0000 0.0000
v  75.1879 460.0684 0.0000
v  75.2000 460.0000 0.0000
v  75.1532 460.1286 0.0000
v  75.1000 460.1732 0.0000
v  75.0347 460.1970 0.0000
v  74.9653 460.1970 0.0000
v  74.9000 460.1732 0.0000
v  74.8468 460.1286 0.0000
v  74.8121 460.0684 0.0000
v  74.8000 460.0000 0.0000
v  74.8121 459.9316 0.0000
v  74.8468 459.8714 0.0000
v  74.9000 459.8268 0.0000
v  74.9653 459.8030 0.0000
v  75.0347 459.8030 0.0000
v  75.1000 459.8268 0.0000
v  75.1532 459.8714 0.0000
v  75.1879 459.9316 0.0000
v  75.1879 460.0684 10.0000
v  75.2000 460.0000 10.0000
v  75.1532 460.1286 10.0000
v  75.1000 460.1732 10.0000
v  75.0347 460.1970 10.0000
v  74.9653 460.1970 10.0000
v  74.9000 460.1732 10.0000
v  74.8468 460.1286 10.0000
v  74.8121 460.0684 10.0000
v  74.8000 460.0000 10.0000
v  74.8121 459.9316 10.0000
v  74.8468 459.8714 10.0000
v  74.9000 459.8268 10.0000
v  74.9653 459.8030 10.0000
v  75.0347 459.8030 10.0000
v  75.1000 459.8268 10.0000
v  75.1532 459.8714 10.0000
v  75.1879 459.9316 10.0000
v  75.0000 460.0000 10.0000
# 38 vertices

vn 0.0000 0.0000 -1.0000
vn 1.0000 -0.0000 0.0000
vn 0.9397 0.3420 0.0000
vn 0.7660 0.6428 0.0000
vn 0.5000 0.8660 0.0000
vn 0.1736 0.9848 0.0000
vn -0.1736 0.9848 0.0000
vn -0.5000 0.8660 0.0000
vn -0.7660 0.6428 0.0000
vn -0.9397 0.3420 0.0000
vn -1.0000 0.0000 0.0000
vn -1.0000 -0.0000 0.0000
vn -0.9397 -0.3420 0.0000
vn -0.7660 -0.6428 0.0000
vn -0.5000 -0.8660 0.0000
vn -0.1736 -0.9848 0.0000
vn 0.1736 -0.9848 0.0000
vn 0.5000 -0.8660 0.0000
vn 0.7660 -0.6428 0.0000
vn 0.9397 -0.3420 0.0000
vn 0.0000 0.0000 1.0000
# 21 vertex normals

vt 0.5000 0.0000 0.0000
vt 0.8056 0.0000 1.0000
vt 0.7500 0.0000 1.0000
vt 0.8611 0.0000 1.0000
vt 0.9167 0.0000 1.0000
vt 0.9722 0.0000 1.0000
vt 0.0278 0.0000 1.0000
vt -0.0278 0.0000 1.0000
vt 0.0833 0.0000 1.0000
vt 0.1389 0.0000 1.0000
vt 0.1944 0.0000 1.0000
vt 0.2500 0.0000 1.0000
vt 0.3056 0.0000 1.0000
vt 0.3611 0.0000 1.0000
vt 0.4167 0.0000 1.0000
vt 0.4722 0.0000 1.0000
vt 0.5278 0.0000 1.0000
vt 0.5833 0.0000 1.0000
vt 0.6389 0.0000 1.0000
vt 0.6944 0.0000 1.0000
vt 0.8056 1.0000 1.0000
vt 0.7500 1.0000 1.0000
vt 0.8611 1.0000 1.0000
vt 0.9167 1.0000 1.0000
vt 0.9722 1.0000 1.0000
vt 0.0278 1.0000 1.0000
vt -0.0278 1.0000 1.0000
vt 0.0833 1.0000 1.0000
vt 0.1389 1.0000 1.0000
vt 0.1944 1.0000 1.0000
vt 0.2500 1.0000 1.0000
vt 0.3056 1.0000 1.0000
vt 0.3611 1.0000 1.0000
vt 0.4167 1.0000 1.0000
vt 0.4722 1.0000 1.0000
vt 0.5278 1.0000 1.0000
vt 0.5833 1.0000 1.0000
vt 0.6389 1.0000 1.0000
vt 0.6944 1.0000 1.0000
vt 0.5000 1.0000 0.0000
# 40 texture coords

g montantG
usemtl greyMetal
f 1/1/1 2/2/1 3/3/1 
f 1/1/1 4/4/1 2/2/1 
f 1/1/1 5/5/1 4/4/1 
f 1/1/1 6/6/1 5/5/1 
f 1/1/1 7/7/1 6/8/1 
f 1/1/1 8/9/1 7/7/1 
f 1/1/1 9/10/1 8/9/1 
f 1/1/1 10/11/1 9/10/1 
f 1/1/1 11/12/1 10/11/1 
f 1/1/1 12/13/1 11/12/1 
f 1/1/1 13/14/1 12/13/1 
f 1/1/1 14/15/1 13/14/1 
f 1/1/1 15/16/1 14/15/1 
f 1/1/1 16/17/1 15/16/1 
f 1/1/1 17/18/1 16/17/1 
f 1/1/1 18/19/1 17/18/1 
f 1/1/1 19/20/1 18/19/1 
f 1/1/1 3/3/1 19/20/1 
f 3/3/2 20/21/3 21/22/2 
f 3/3/2 2/2/3 20/21/3 
f 2/2/3 22/23/4 20/21/3 
f 2/2/3 4/4/4 22/23/4 
f 4/4/4 23/24/5 22/23/4 
f 4/4/4 5/5/5 23/24/5 
f 5/5/5 24/25/6 23/24/5 
f 5/5/5 6/6/6 24/25/6 
f 6/8/6 25/26/7 24/27/6 
f 6/8/6 7/7/7 25/26/7 
f 7/7/7 26/28/8 25/26/7 
f 7/7/7 8/9/8 26/28/8 
f 8/9/8 27/29/9 26/28/8 
f 8/9/8 9/10/9 27/29/9 
f 9/10/9 28/30/10 27/29/9 
f 9/10/9 10/11/10 28/30/10 
f 10/11/10 29/31/11 28/30/10 
f 10/11/10 11/12/12 29/31/11 
f 11/12/12 30/32/13 29/31/11 
f 11/12/12 12/13/13 30/32/13 
f 12/13/13 31/33/14 30/32/13 
f 12/13/13 13/14/14 31/33/14 
f 13/14/14 32/34/15 31/33/14 
f 13/14/14 14/15/15 32/34/15 
f 14/15/15 33/35/16 32/34/15 
f 14/15/15 15/16/16 33/35/16 
f 15/16/16 34/36/17 33/35/16 
f 15/16/16 16/17/17 34/36/17 
f 16/17/17 35/37/18 34/36/17 
f 16/17/17 17/18/18 35/37/18 
f 17/18/18 36/38/19 35/37/18 
f 17/18/18 18/19/19 36/38/19 
f 18/19/19 37/39/20 36/38/19 
f 18/19/19 19/20/20 37/39/20 
f 19/20/20 21/22/2 37/39/20 
f 19/20/20 3/3/2 21/22/2 
f 38/40/21 21/22/21 20/21/21 
f 38/40/21 20/21/21 22/23/21 
f 38/40/21 22/23/21 23/24/21 
f 38/40/21 23/24/21 24/25/21 
f 38/40/21 24/27/21 25/26/21 
f 38/40/21 25/26/21 26/28/21 
f 38/40/21 26/28/21 27/29/21 
f 38/40/21 27/29/21 28/30/21 
f 38/40/21 28/30/21 29/31/21 
f 38/40/21 29/31/21 30/32/21 
f 38/40/21 30/32/21 31/33/21 
f 38/40/21 31/33/21 32/34/21 
f 38/40/21 32/34/21 33/35/21 
f 38/40/21 33/35/21 34/36/21 
f 38/40/21 34/36/21 35/37/21 
f 38/40/21 35/37/21 36/38/21 
f 38/40/21 36/38/21 37/39/21 
f 38/40/21 37/39/21 21/22/21 
# 72 faces

#
# object arrivee
#

v  75.0000 459.9500 8.0000
v  75.0000 460.0500 8.0000
v  165.0000 460.0500 8.0000
v  165.0000 459.9500 8.0000
v  75.0000 459.9500 10.0000
v  165.0000 459.9500 10.0000
v  165.0000 460.0500 10.0000
v  75.0000 460.0500 10.0000
# 8 vertices

vn 0.0000 0.0000 -1.0000
vn 0.0000 0.0000 1.0000
vn 0.0000 -1.0000 0.0000
vn 1.0000 0.0000 0.0000
vn 0.0000 1.0000 0.0000
vn -1.0000 0.0000 0.0000
# 6 vertex normals

vt 1.0000 0.0000 0.0000
vt 1.0000 1.0000 0.0000
vt 0.0000 1.0000 0.0000
vt 0.0000 0.0000 0.0000
# 4 texture coords

g arrivee
usemtl greyMetal
f 39/41/22 40/42/22 41/43/22 
f 41/43/22 42/44/22 39/41/22 
f 43/44/23 44/41/23 45/42/23 
f 45/42/23 46/43/23 43/44/23 
f 39/44/24 42/41/24 44/42/24 
f 44/42/24 43/43/24 39/44/24 
f 42/44/25 41/41/25 45/42/25 
f 45/42/25 44/43/25 42/44/25 
f 41/44/26 40/41/26 46/42/26 
f 46/42/26 45/43/26 41/44/26 
f 40/44/27 39/41/27 43/42/27 
f 43/42/27 46/43/27 40/44/27 
# 12 faces

#
# object montantD
#

v  165.0000 460.0000 0.0000
v  165.1879 460.0684 0.0000
v  165.2000 460.0000 0.0000
v  165.1532 460.1286 0.0000
v  165.1000 460.1732 0.0000
v  165.0347 460.1970 0.0000
v  164.9653 460.1970 0.0000
v  164.9000 460.1732 0.0000
v  164.8468 460.1286 0.0000
v  164.8121 460.0684 0.0000
v  164.8000 460.0000 0.0000
v  164.8121 459.9316 0.0000
v  164.8468 459.8714 0.0000
v  164.9000 459.8268 0.0000
v  164.9653 459.8030 0.0000
v  165.0347 459.8030 0.0000
v  165.1000 459.8268 0.0000
v  165.1532 459.8714 0.0000
v  165.1879 459.9316 0.0000
v  165.1879 460.0684 10.0000
v  165.2000 460.0000 10.0000
v  165.1532 460.1286 10.0000
v  165.1000 460.1732 10.0000
v  165.0347 460.1970 10.0000
v  164.9653 460.1970 10.0000
v  164.9000 460.1732 10.0000
v  164.8468 460.1286 10.0000
v  164.8121 460.0684 10.0000
v  164.8000 460.0000 10.0000
v  164.8121 459.9316 10.0000
v  164.8468 459.8714 10.0000
v  164.9000 459.8268 10.0000
v  164.9653 459.8030 10.0000
v  165.0347 459.8030 10.0000
v  165.1000 459.8268 10.0000
v  165.1532 459.8714 10.0000
v  165.1879 459.9316 10.0000
v  165.0000 460.0000 10.0000
# 38 vertices

vn 0.0000 0.0000 -1.0000
vn 1.0000 -0.0000 0.0000
vn 0.9397 0.3420 0.0000
vn 0.7660 0.6428 0.0000
vn 0.5000 0.8660 0.0000
vn 0.1736 0.9848 0.0000
vn -0.1736 0.9848 0.0000
vn -0.5000 0.8660 0.0000
vn -0.7660 0.6428 0.0000
vn -0.9397 0.3420 0.0000
vn -1.0000 0.0000 0.0000
vn -1.0000 -0.0000 0.0000
vn -0.9397 -0.3420 0.0000
vn -0.7660 -0.6428 0.0000
vn -0.5000 -0.8660 0.0000
vn -0.1736 -0.9848 0.0000
vn 0.1736 -0.9848 0.0000
vn 0.5000 -0.8660 0.0000
vn 0.7660 -0.6428 0.0000
vn 0.9397 -0.3420 0.0000
vn 0.0000 0.0000 1.0000
# 21 vertex normals

vt 0.5000 0.0000 0.0000
vt 0.8056 0.0000 1.0000
vt 0.7500 0.0000 1.0000
vt 0.8611 0.0000 1.0000
vt 0.9167 0.0000 1.0000
vt 0.9722 0.0000 1.0000
vt 0.0278 0.0000 1.0000
vt -0.0278 0.0000 1.0000
vt 0.0833 0.0000 1.0000
vt 0.1389 0.0000 1.0000
vt 0.1944 0.0000 1.0000
vt 0.2500 0.0000 1.0000
vt 0.3056 0.0000 1.0000
vt 0.3611 0.0000 1.0000
vt 0.4167 0.0000 1.0000
vt 0.4722 0.0000 1.0000
vt 0.5278 0.0000 1.0000
vt 0.5833 0.0000 1.0000
vt 0.6389 0.0000 1.0000
vt 0.6944 0.0000 1.0000
vt 0.8056 1.0000 1.0000
vt 0.7500 1.0000 1.0000
vt 0.8611 1.0000 1.0000
vt 0.9167 1.0000 1.0000
vt 0.9722 1.0000 1.0000
vt 0.0278 1.0000 1.0000
vt -0.0278 1.0000 1.0000
vt 0.0833 1.0000 1.0000
vt 0.1389 1.0000 1.0000
vt 0.1944 1.0000 1.0000
vt 0.2500 1.0000 1.0000
vt 0.3056 1.0000 1.0000
vt 0.3611 1.0000 1.0000
vt 0.4167 1.0000 1.0000
vt 0.4722 1.0000 1.0000
vt 0.5278 1.0000 1.0000
vt 0.5833 1.0000 1.0000
vt 0.6389 1.0000 1.0000
vt 0.6944 1.0000 1.0000
vt 0.5000 1.0000 0.0000
# 40 texture coords

g montantD
usemtl greyMetal
f 47/45/28 48/46/28 49/47/28 
f 47/45/28 50/48/28 48/46/28 
f 47/45/28 51/49/28 50/48/28 
f 47/45/28 52/50/28 51/49/28 
f 47/45/28 53/51/28 52/52/28 
f 47/45/28 54/53/28 53/51/28 
f 47/45/28 55/54/28 54/53/28 
f 47/45/28 56/55/28 55/54/28 
f 47/45/28 57/56/28 56/55/28 
f 47/45/28 58/57/28 57/56/28 
f 47/45/28 59/58/28 58/57/28 
f 47/45/28 60/59/28 59/58/28 
f 47/45/28 61/60/28 60/59/28 
f 47/45/28 62/61/28 61/60/28 
f 47/45/28 63/62/28 62/61/28 
f 47/45/28 64/63/28 63/62/28 
f 47/45/28 65/64/28 64/63/28 
f 47/45/28 49/47/28 65/64/28 
f 49/47/29 66/65/30 67/66/29 
f 49/47/29 48/46/30 66/65/30 
f 48/46/30 68/67/31 66/65/30 
f 48/46/30 50/48/31 68/67/31 
f 50/48/31 69/68/32 68/67/31 
f 50/48/31 51/49/32 69/68/32 
f 51/49/32 70/69/33 69/68/32 
f 51/49/32 52/50/33 70/69/33 
f 52/52/33 71/70/34 70/71/33 
f 52/52/33 53/51/34 71/70/34 
f 53/51/34 72/72/35 71/70/34 
f 53/51/34 54/53/35 72/72/35 
f 54/53/35 73/73/36 72/72/35 
f 54/53/35 55/54/36 73/73/36 
f 55/54/36 74/74/37 73/73/36 
f 55/54/36 56/55/37 74/74/37 
f 56/55/37 75/75/38 74/74/37 
f 56/55/37 57/56/39 75/75/38 
f 57/56/39 76/76/40 75/75/38 
f 57/56/39 58/57/40 76/76/40 
f 58/57/40 77/77/41 76/76/40 
f 58/57/40 59/58/41 77/77/41 
f 59/58/41 78/78/42 77/77/41 
f 59/58/41 60/59/42 78/78/42 
f 60/59/42 79/79/43 78/78/42 
f 60/59/42 61/60/43 79/79/43 
f 61/60/43 80/80/44 79/79/43 
f 61/60/43 62/61/44 80/80/44 
f 62/61/44 81/81/45 80/80/44 
f 62/61/44 63/62/45 81/81/45 
f 63/62/45 82/82/46 81/81/45 
f 63/62/45 64/63/46 82/82/46 
f 64/63/46 83/83/47 82/82/46 
f 64/63/46 65/64/47 83/83/47 
f 65/64/47 67/66/29 83/83/47 
f 65/64/47 49/47/29 67/66/29 
f 84/84/48 67/66/48 66/65/48 
f 84/84/48 66/65/48 68/67/48 
f 84/84/48 68/67/48 69/68/48 
f 84/84/48 69/68/48 70/69/48 
f 84/84/48 70/71/48 71/70/48 
f 84/84/48 71/70/48 72/72/48 
f 84/84/48 72/72/48 73/73/48 
f 84/84/48 73/73/48 74/74/48 
f 84/84/48 74/74/48 75/75/48 
f 84/84/48 75/75/48 76/76/48 
f 84/84/48 76/76/48 77/77/48 
f 84/84/48 77/77/48 78/78/48 
f 84/84/48 78/78/48 79/79/48 
f 84/84/48 79/79/48 80/80/48 
f 84/84/48 80/80/48 81/81/48 
f 84/84/48 81/81/48 82/82/48 
f 84/84/48 82/82/48 83/83/48 
f 84/84/48 83/83/48 67/66/48 
# 72 faces

#
# object virage
#

v  200.0500 257.5000 80.0000
v  199.9500 257.5000 80.0000
v  199.9500 302.5000 80.0000
v  200.0500 302.5000 80.0000
v  200.0500 257.5000 82.0000
v  200.0500 302.5000 82.0000
v  199.9500 302.5000 82.0000
v  199.9500 257.5000 82.0000
# 8 vertices

vn 0.0000 0.0000 -1.0000
vn 0.0000 0.0000 1.0000
vn 1.0000 -0.0000 0.0000
vn 0.0000 1.0000 0.0000
vn -1.0000 0.0000 0.0000
vn -0.0000 -1.0000 0.0000
# 6 vertex normals

vt 1.0000 0.0000 0.0000
vt 1.0000 1.0000 0.0000
vt 0.0000 1.0000 0.0000
vt 0.0000 0.0000 0.0000
# 4 texture coords

g virage
usemtl greyMetal
f 85/85/49 86/86/49 87/87/49 
f 87/87/49 88/88/49 85/85/49 
f 89/88/50 90/85/50 91/86/50 
f 91/86/50 92/87/50 89/88/50 
f 85/88/51 88/85/51 90/86/51 
f 90/86/51 89/87/51 85/88/51 
f 88/88/52 87/85/52 91/86/52 
f 91/86/52 90/87/52 88/88/52 
f 87/88/53 86/85/53 92/86/53 
f 92/86/53 91/87/53 87/88/53 
f 86/88/54 85/85/54 89/86/54 
f 89/86/54 92/87/54 86/88/54 
# 12 faces

